<?xml version="1.0" standalone="no"?>
<!DOCTYPE svg PUBLIC "-//W3C//DTD SVG 20010904//EN"
 "http://www.w3.org/TR/2001/REC-SVG-20010904/DTD/svg10.dtd">
<svg version="1.0" xmlns="http://www.w3.org/2000/svg"
 width="630.000000pt" height="630.000000pt" viewBox="0 0 630.000000 630.000000"
 preserveAspectRatio="xMidYMid meet">
<metadata>
Created by potrace 1.11, written by Peter Selinger 2001-2013
</metadata>
<g transform="translate(0.000000,630.000000) scale(0.100000,-0.100000)"
fill="#000000" stroke="none">
<path d="M1175 6292 c-27 -5 -62 -39 -73 -71 -13 -42 -8 -472 6 -499 22 -38
57 -54 127 -55 l65 -2 0 -105 0 -105 -572 1 c-459 0 -578 -2 -600 -13 -62 -30
-58 57 -56 -1417 l3 -1346 25 -25 c28 -27 83 -38 115 -23 11 6 74 66 140 133
66 68 267 273 446 457 180 183 380 388 445 455 66 67 256 262 424 434 168 171
355 362 415 424 61 62 257 263 436 447 180 183 394 402 476 486 l149 153 24
-24 c26 -24 260 -263 830 -846 535 -548 534 -547 910 -932 195 -199 391 -399
435 -444 44 -45 222 -227 395 -404 173 -178 323 -327 333 -333 55 -29 120 -9
141 45 20 49 17 2693 -3 2723 -33 50 13 48 -1056 49 -1120 0 -1048 5 -1074
-71 -18 -50 -4 -93 38 -121 24 -16 87 -17 964 -17 l937 0 0 -1128 c0 -620 -1
-1128 -3 -1128 -4 0 -228 226 -374 377 -54 56 -252 258 -439 450 -188 191
-383 391 -434 443 -51 52 -249 255 -440 450 -191 195 -389 398 -440 450 -515
529 -688 701 -710 709 -15 5 -39 7 -54 4 -25 -5 -185 -161 -488 -474 -45 -48
-236 -243 -423 -434 -187 -191 -384 -393 -439 -448 -134 -139 -731 -750 -1002
-1026 -122 -124 -282 -288 -355 -363 -73 -76 -135 -138 -138 -138 -4 0 -6 507
-6 1128 l0 1127 570 0 c434 1 578 4 601 13 58 24 61 42 60 307 -1 223 -2 242
-21 267 -24 33 -60 44 -132 43 l-54 -1 3 106 3 105 295 1 c162 0 300 -1 306
-3 11 -4 16 -202 5 -204 -3 0 -33 -2 -67 -4 -127 -6 -134 -21 -134 -320 0
-318 -7 -309 245 -310 182 0 212 4 242 37 25 27 30 50 20 98 -13 60 -44 74
-171 75 -61 0 -115 3 -121 7 -6 3 -10 49 -9 104 l0 98 65 2 c72 2 101 13 125
48 23 37 24 495 0 531 -32 49 -34 49 -486 50 -234 0 -434 -1 -445 -3z"/>
<path d="M3050 4603 c-180 -46 -306 -208 -311 -398 -6 -231 184 -428 412 -427
111 0 213 46 291 130 155 166 154 419 -3 581 -100 104 -254 149 -389 114z
m172 -212 c73 -27 127 -111 128 -194 0 -118 -86 -208 -201 -209 -91 0 -167 57
-194 148 -50 166 107 316 267 255z"/>
<path d="M4698 2935 c-2 -2 -34 -6 -73 -9 -71 -7 -215 -37 -270 -57 -85 -31
-167 -67 -225 -98 -333 -176 -587 -482 -704 -847 -19 -60 -38 -125 -41 -144
-63 -370 -26 -664 120 -966 72 -149 158 -268 285 -394 236 -236 495 -365 825
-410 65 -9 351 -6 400 5 88 18 228 56 273 74 769 303 1137 1169 826 1946 -98
245 -285 481 -505 637 -236 168 -505 257 -791 263 -65 1 -119 1 -120 0z m252
-219 c19 -3 46 -8 60 -10 358 -59 701 -320 874 -664 40 -80 101 -252 111 -317
4 -22 10 -65 15 -95 9 -58 6 -311 -5 -370 -25 -139 -84 -304 -148 -417 -126
-221 -329 -412 -549 -516 -541 -257 -1194 -75 -1528 425 -73 109 -101 163
-139 266 -61 165 -76 260 -76 462 1 270 65 483 210 700 44 65 55 79 130 161
181 199 471 348 734 376 31 3 57 7 59 8 5 5 217 -3 252 -9z"/>
<path d="M4724 2278 c-21 -19 -34 -40 -36 -60 -2 -25 -9 -33 -32 -39 -47 -13
-148 -87 -188 -139 -63 -80 -82 -140 -82 -255 0 -80 5 -111 22 -155 62 -154
191 -249 358 -265 121 -12 180 -50 213 -141 50 -138 -45 -277 -189 -277 -113
0 -191 76 -205 198 -7 56 -19 77 -56 99 -43 25 -77 20 -115 -18 -28 -28 -34
-41 -34 -78 0 -167 121 -340 271 -387 32 -10 37 -17 43 -51 11 -71 87 -101
153 -60 25 15 34 29 39 57 6 35 11 40 69 66 107 49 181 131 221 245 19 55 23
83 20 154 -3 76 -8 96 -39 160 -73 149 -188 227 -357 241 -131 11 -202 78
-214 204 -4 48 27 124 65 160 34 31 91 53 139 53 107 0 189 -78 203 -192 7
-56 19 -81 49 -102 65 -46 158 9 158 93 0 167 -115 326 -283 390 -18 7 -27 18
-27 32 0 34 -32 78 -65 88 -46 14 -65 10 -101 -21z"/>
<path d="M530 2708 c-17 -10 -35 -30 -40 -44 -14 -37 -13 -882 1 -923 22 -64
107 -80 161 -32 l33 29 1 449 c1 413 0 451 -17 484 -28 56 -84 71 -139 37z"/>
<path d="M1155 2715 c-60 -30 -59 -20 -60 -490 -1 -236 2 -446 6 -465 20 -94
144 -109 188 -23 6 12 11 51 11 87 l0 64 308 1 308 0 1 -71 c1 -78 20 -116 66
-132 43 -16 98 4 120 41 18 31 19 59 18 455 0 233 0 435 0 450 -1 16 -14 42
-30 60 l-29 33 -439 2 c-371 2 -443 0 -468 -12z m760 -409 l0 -210 -295 1
c-162 1 -301 2 -307 2 -10 1 -13 49 -13 204 0 112 2 206 5 209 3 3 142 5 308
4 l302 -1 0 -209z"/>
<path d="M2581 2709 c-50 -30 -52 -53 -49 -532 l3 -439 33 -29 c35 -31 73 -37
116 -18 51 24 54 44 54 429 1 195 1 364 1 376 1 21 3 21 365 21 401 0 413 1
440 58 20 41 20 58 0 96 -28 56 -39 57 -506 57 -395 0 -429 -2 -457 -19z"/>
<path d="M135 1461 c-32 -14 -55 -46 -62 -85 -7 -45 8 -76 49 -100 28 -17 77
-18 757 -18 400 0 741 3 759 7 71 15 95 109 43 167 l-29 33 -749 2 c-411 1
-757 -2 -768 -6z"/>
<path d="M1988 1461 c-14 -3 -37 -19 -49 -35 l-23 -29 -1 -646 c0 -355 3 -659
7 -675 21 -82 130 -100 181 -30 17 23 18 62 19 684 0 615 -2 661 -18 689 -15
26 -62 54 -83 50 -3 -1 -18 -4 -33 -8z"/>
<path d="M2384 1454 c-80 -39 -67 -171 19 -190 17 -4 174 -7 348 -6 361 0 369
2 390 72 15 50 -1 94 -45 121 -29 18 -55 19 -356 19 -272 0 -330 -3 -356 -16z"/>
<path d="M134 1040 c-77 -31 -85 -142 -12 -184 27 -17 80 -18 773 -18 666 0
745 2 767 16 55 36 63 109 19 158 l-29 33 -749 2 c-411 1 -758 -2 -769 -7z"/>
<path d="M2400 1043 c-8 -3 -27 -17 -42 -31 -44 -40 -35 -124 16 -157 21 -14
71 -16 384 -17 330 0 362 1 390 18 58 34 66 118 15 166 l-25 23 -361 2 c-199
1 -369 -1 -377 -4z"/>
<path d="M140 623 c-83 -31 -90 -160 -10 -193 19 -8 238 -11 764 -12 703 0
737 1 768 19 41 24 55 69 40 121 -23 75 21 72 -808 71 -407 0 -746 -3 -754 -6z"/>
<path d="M2400 622 c-45 -20 -62 -42 -67 -85 -6 -51 15 -93 56 -108 20 -8 510
-13 873 -9 86 0 139 80 102 152 -30 58 -33 58 -511 57 -241 0 -445 -3 -453 -7z"/>
<path d="M140 203 c-81 -30 -90 -157 -14 -192 37 -16 1493 -16 1529 1 48 22
68 88 44 142 -26 57 -11 56 -811 55 -403 0 -740 -3 -748 -6z"/>
<path d="M2385 198 c-37 -21 -48 -40 -52 -86 -3 -39 0 -52 20 -77 l25 -30 650
-3 c405 -1 659 1 675 7 78 30 77 154 -1 190 -34 16 -1289 14 -1317 -1z"/>
</g>
</svg>
