<?xml version="1.0" encoding="utf-8"?>
<!-- Generator: Adobe Illustrator 19.2.1, SVG Export Plug-In . SVG Version: 6.00 Build 0)  -->
<svg version="1.1" id="Layer_1" xmlns="http://www.w3.org/2000/svg" xmlns:xlink="http://www.w3.org/1999/xlink" x="0px" y="0px"
	 viewBox="0 0 570.2 172.6" style="enable-background:new 0 0 570.2 172.6;" xml:space="preserve">
<style type="text/css">
	.st0{fill:#A7A9AC;}
	.st1{fill:#003369;}
	.st2{fill:#1C75BC;}
	.st3{fill:#FFFFFF;}
</style>
<g>
	<g>
		<path class="st3" d="M23.2,98.1c-1.5,0-2.7,1.2-2.7,2.7V164c0,2,1.2,3.6,2.7,3.6c1.5,0,2.7-1.6,2.7-3.6v-41.9c0,0,0,0,0,0v-21.4
			C25.9,99.2,24.7,98.1,23.2,98.1z M60.7,98.1H39.3c-1.5,0-2.7,1.2-2.7,2.7v21.4c0,1.5,1.2,2.7,2.7,2.7c1.5,0,2.7-1.2,2.7-2.7v-2.7
			h16v2.7c0,1.5,1.2,2.7,2.7,2.7c1.5,0,2.7-1.2,2.7-2.7v-21.4C63.3,99.2,62.1,98.1,60.7,98.1z M58,114.1h-16v-10.7h16V114.1z
			 M100.8,60.6c0-5.9-4.8-10.7-10.7-10.7c-5.9,0-10.7,4.8-10.7,10.7c0,5.9,4.8,10.7,10.7,10.7C96,71.3,100.8,66.5,100.8,60.6z
			 M84.7,60.6c0-2.9,2.4-5.4,5.3-5.4c2.9,0,5.3,2.4,5.3,5.4S93,66,90.1,66C87.1,66,84.7,63.6,84.7,60.6z M132.9,92.7
			c-20.6,0-37.4,16.8-37.4,37.4c0,20.6,16.8,37.4,37.4,37.4c20.6,0,37.4-16.8,37.4-37.4C170.3,109.5,153.5,92.7,132.9,92.7z
			 M132.9,162.2c-17.7,0-32.1-14.4-32.1-32.1c0-17.7,14.4-32.1,32.1-32.1c17.7,0,32.1,14.4,32.1,32.1
			C165,147.8,150.6,162.2,132.9,162.2z M167.6,28.5h-50.8c-1.5,0-2.7,1.2-2.7,2.7c0,1.5,1.2,2.7,2.7,2.7H165v57.7l-73-73
			c-0.5-0.5-1.2-0.8-1.9-0.8c-0.7,0-1.4,0.3-1.9,0.8l-73,73V33.9h29.4c1.5,0,2.7-1.2,2.7-2.7V20.5c0-1.5-1.2-2.7-2.7-2.7h-2.7v-5.3
			h16v5.3h-2.7c-1.5,0-2.7,1.2-2.7,2.7v10.7c0,1.5,1.2,2.7,2.7,2.7h8c1.5,0,2.7-1.2,2.7-2.7c0-1.5-1.2-2.7-2.7-2.7H58v-5.3h2.7
			c1.5,0,2.7-1.2,2.7-2.7V9.8c0-1.5-1.2-2.7-2.7-2.7H39.3c-1.5,0-2.7,1.2-2.7,2.7v10.7c0,1.5,1.2,2.7,2.7,2.7h2.7v5.3H12.5
			c-0.7,0-1.4,0.3-1.9,0.8c-0.5,0.5-0.8,1.2-0.8,1.9l0,66.9c0,1.1,0.7,2.1,1.6,2.5c0.3,0.1,0.7,0.2,1,0.2c0.7,0,1.4-0.3,1.9-0.8
			l75.6-75.7l75.7,75.7c0.5,0.5,1.2,0.8,1.9,0.8c0.3,0,0.7-0.1,1-0.2c1-0.4,1.7-1.4,1.7-2.5V31.2C170.3,29.7,169.1,28.5,167.6,28.5z
			 M132.9,116.8c3,0,5.3,2.4,5.3,5.3c0,1.5,1.2,2.7,2.7,2.7c1.5,0,2.7-1.2,2.7-2.7c0-5-3.4-9.1-8-10.3v-0.4c0-1.5-1.2-2.7-2.7-2.7
			c-1.5,0-2.7,1.2-2.7,2.7v0.4c-4.6,1.2-8,5.3-8,10.3c0,5.9,4.8,10.7,10.7,10.7c3,0,5.3,2.4,5.3,5.4c0,2.9-2.4,5.3-5.3,5.3
			c-2.9,0-5.3-2.4-5.3-5.3c0-1.5-1.2-2.7-2.7-2.7c-1.5,0-2.7,1.2-2.7,2.7c0,5,3.4,9.1,8,10.3v0.4c0,1.5,1.2,2.7,2.7,2.7
			c1.5,0,2.7-1.2,2.7-2.7v-0.4c4.6-1.2,8-5.3,8-10.3c0-5.9-4.8-10.7-10.7-10.7c-2.9,0-5.3-2.4-5.3-5.4
			C127.5,119.2,129.9,116.8,132.9,116.8z M100.8,100.7c0-1.5-1.2-2.7-2.7-2.7H76.7c-0.6,0-1.2,0.2-1.7,0.6c-0.6,0.5-1,1.2-1,2.1V164
			c0,2,1.2,3.6,2.7,3.6c1.5,0,2.7-1.6,2.7-3.6v-41.9c0,0,0,0,0,0v-18.7h18.7C99.6,103.4,100.8,102.2,100.8,100.7z"/>
	</g>
</g>
<g>
	<path class="st0" d="M266.4,105.4c0,15.4-8.9,29-35.5,29h-31.1v-100h32.1c16.1,0,29.5,6.4,29.5,25.7c0,11.8-6,19.8-14,22.1v0.6
		C257.7,84,266.4,91.2,266.4,105.4z M229.6,46.6h-15.7v31h15.8c12.1,0,17.6-5.3,17.6-15.8C247.3,51.5,241,46.6,229.6,46.6z
		 M251.7,106.2c0-12.6-9.1-16.1-19.8-16.1h-18v32.1h18.7C246,122.1,251.7,116.6,251.7,106.2z"/>
	<path class="st0" d="M295.4,24.2c5.4,0,9.4,4,9.4,9.6c0,5.1-4,9.1-9.4,9.1c-5.1,0-9.3-4-9.3-9.1C286.1,28.2,290.3,24.2,295.4,24.2z
		 M288.8,55.9H303v78.5h-14.1V55.9z"/>
	<path class="st0" d="M329.8,112.3V67.1h-11.1v-8.8l11.1-2.9l4.6-19.8h9.4v20.4h21v11.1h-21v45c0,7.7,4,11.1,10.4,11.1
		c5.6,0,9.3-1.3,11.7-3l3.7,11c-2.9,1.9-8.3,4-18.8,4C337.6,135.1,329.8,128.3,329.8,112.3z"/>
</g>
<g>
	<g>
		<path class="st3" d="M411.8,34.4c21.1,0,33.7,8.3,33.7,28.5c0,16.7-10.3,25.8-22.1,27.4v0.6c4.3,2,7.8,5.4,12.4,13.4l17.6,30.1
			H436l-17.7-32.1c-3.1-5.7-7.1-8.1-13.7-8.1h-5.9v40.2h-14.3v-100H411.8z M398.8,82.2h11.6c13.1,0,20.4-5.4,20.4-18
			c0-12.6-7.4-17.4-21-17.4h-11V82.2z"/>
		<path class="st3" d="M470.2,134.4v-100H525v12.4h-40.5v30.7h35.4v12.4h-35.4V122h42.4v12.4H470.2z"/>
		<path class="st3" d="M548.2,34.4h14.4v100h-14.4V34.4z"/>
	</g>
</g>
<g>
	<g>
		<path class="st3" d="M195.8,163.3v-15.8h8.6v2h-6.3v5.3h5.6v2h-5.6v6.5H195.8z"/>
		<path class="st3" d="M211.5,147.5c3.3,0,5.3,1.3,5.3,4.5c0,2.6-1.6,4.1-3.5,4.3v0.1c0.7,0.3,1.2,0.9,2,2.1l2.8,4.8h-2.7l-2.8-5.1
			c-0.5-0.9-1.1-1.3-2.2-1.3h-0.9v6.4h-2.3v-15.8H211.5z M209.5,155.1h1.8c2.1,0,3.2-0.9,3.2-2.8c0-2-1.2-2.8-3.3-2.8h-1.7V155.1z"
			/>
		<path class="st3" d="M227.3,147.5l5.1,15.8H230l-1.3-4.3h-6l-1.4,4.3h-2.3l5-15.8H227.3z M223.2,157h4.8l-1.4-4.4
			c-0.4-1.5-0.7-2.4-1-3.5h-0.1c-0.3,1.1-0.6,2.1-1,3.5L223.2,157z"/>
		<path class="st3" d="M240,147.3c2.6,0,3.9,1,4.4,1.5l-1.5,1.7c-0.6-0.6-1.5-1.2-3.1-1.2c-2.6,0-4.1,1.9-4.1,6.1
			c0,4,1.5,6.1,4.3,6.1c1.6,0,2.5-0.5,3-1.1l1.3,1.6c-0.7,0.7-2.1,1.5-4.5,1.5c-4.5,0-6.4-3.2-6.4-8
			C233.4,150.4,235.7,147.3,240,147.3z"/>
		<path class="st3" d="M249.5,149.5h-4.2v-2h10.6v2h-4.1v13.9h-2.3V149.5z"/>
		<path class="st3" d="M258.4,147.5h2.3v15.8h-2.3V147.5z"/>
		<path class="st3" d="M270.3,163.5c-3.8,0-6.1-2.2-6.1-8.1c0-5.8,2.5-8.2,6.3-8.2c3.8,0,6.2,2.2,6.2,8.1
			C276.7,161.1,274.1,163.5,270.3,163.5z M270.5,161.5c2.4,0,3.9-1.5,3.9-6.1c0-4.6-1.5-6.2-4-6.2c-2.3,0-3.9,1.4-3.9,6
			C266.5,160,268,161.5,270.5,161.5z"/>
		<path class="st3" d="M282.1,150.3c0.1,1.4,0.1,2.7,0.1,4.6v8.5H280v-15.8h3l4.7,8.9c0.7,1.3,1.4,2.6,1.9,3.9h0.1
			c-0.1-1.7-0.1-3.3-0.1-4.8v-8.1h2.1v15.8h-2.9l-4.8-9.1c-0.7-1.3-1.3-2.6-1.9-3.9H282.1z"/>
		<path class="st3" d="M302.6,147.5l5.1,15.8h-2.4l-1.3-4.3h-6l-1.4,4.3h-2.3l5-15.8H302.6z M298.5,157h4.8l-1.4-4.4
			c-0.4-1.5-0.7-2.4-1-3.5h-0.1c-0.3,1.1-0.6,2.1-1,3.5L298.5,157z"/>
		<path class="st3" d="M312.1,147.5v13.9h6.5v2h-8.8v-15.8H312.1z"/>
		<path class="st3" d="M331.8,147.5c3.3,0,5.3,1.3,5.3,4.5c0,2.6-1.6,4.1-3.5,4.3v0.1c0.7,0.3,1.2,0.9,2,2.1l2.8,4.8h-2.7l-2.8-5.1
			c-0.5-0.9-1.1-1.3-2.2-1.3h-0.9v6.4h-2.3v-15.8H331.8z M329.8,155.1h1.8c2.1,0,3.2-0.9,3.2-2.8c0-2-1.2-2.8-3.3-2.8h-1.7V155.1z"
			/>
		<path class="st3" d="M341.1,163.3v-15.8h8.7v2h-6.4v4.9h5.6v2h-5.6v5.1h6.7v2H341.1z"/>
		<path class="st3" d="M359.8,147.5l5.1,15.8h-2.4l-1.3-4.3h-6l-1.4,4.3h-2.3l5-15.8H359.8z M355.7,157h4.8l-1.4-4.4
			c-0.4-1.5-0.7-2.4-1-3.5H358c-0.3,1.1-0.6,2.1-1,3.5L355.7,157z"/>
		<path class="st3" d="M369.4,147.5v13.9h6.5v2h-8.8v-15.8H369.4z"/>
		<path class="st3" d="M384.8,163.3v-15.8h8.7v2H387v4.9h5.6v2H387v5.1h6.7v2H384.8z"/>
		<path class="st3" d="M403.8,159.2c0-3.3-7.4-2.6-7.4-7.6c0-2.5,2.1-4.4,5.1-4.4c2,0,3.5,0.8,4.3,1.5l-1.4,1.7
			c-0.7-0.6-1.6-1.2-3-1.2c-1.6,0-2.6,0.9-2.6,2.2c0,3.3,7.5,2.7,7.5,7.6c0,2.4-1.9,4.4-5.5,4.4c-2.6,0-4.3-1-5.1-1.7l1.3-1.9
			c0.8,0.7,2.1,1.6,4,1.6C402.8,161.5,403.8,160.5,403.8,159.2z"/>
		<path class="st3" d="M411,149.5h-4.2v-2h10.6v2h-4.1v13.9H411V149.5z"/>
		<path class="st3" d="M425.1,147.5l5.1,15.8h-2.4l-1.3-4.3h-6l-1.4,4.3h-2.3l5-15.8H425.1z M421,157h4.8l-1.4-4.4
			c-0.4-1.5-0.7-2.4-1-3.5h-0.1c-0.3,1.1-0.6,2.1-1,3.5L421,157z"/>
		<path class="st3" d="M433.7,149.5h-4.2v-2h10.6v2H436v13.9h-2.3V149.5z"/>
		<path class="st3" d="M442.3,163.3v-15.8h8.7v2h-6.4v4.9h5.6v2h-5.6v5.1h6.7v2H442.3z"/>
		<path class="st3" d="M461.2,147.5h2.3v15.8h-2.3V147.5z"/>
		<path class="st3" d="M469.8,150.3c0.1,1.4,0.1,2.7,0.1,4.6v8.5h-2.2v-15.8h3l4.7,8.9c0.7,1.3,1.4,2.6,1.9,3.9h0.1
			c-0.1-1.7-0.1-3.3-0.1-4.8v-8.1h2.1v15.8h-2.9l-4.8-9.1c-0.7-1.3-1.3-2.6-1.9-3.9H469.8z"/>
		<path class="st3" d="M481.9,147.5h2.5l3.3,10.6c0.4,1.2,0.7,2.3,1,3.5h0.1c0.3-1.2,0.6-2.3,1-3.5l3.3-10.5h2.4l-5.2,15.8H487
			L481.9,147.5z"/>
		<path class="st3" d="M497.7,163.3v-15.8h8.7v2h-6.4v4.9h5.6v2h-5.6v5.1h6.7v2H497.7z"/>
		<path class="st3" d="M516.7,159.2c0-3.3-7.4-2.6-7.4-7.6c0-2.5,2.1-4.4,5.1-4.4c2,0,3.5,0.8,4.3,1.5l-1.4,1.7
			c-0.7-0.6-1.6-1.2-3-1.2c-1.6,0-2.6,0.9-2.6,2.2c0,3.3,7.5,2.7,7.5,7.6c0,2.4-1.9,4.4-5.5,4.4c-2.6,0-4.3-1-5.1-1.7l1.3-1.9
			c0.8,0.7,2.1,1.6,4,1.6C515.7,161.5,516.7,160.5,516.7,159.2z"/>
		<path class="st3" d="M523.9,149.5h-4.2v-2h10.6v2h-4.1v13.9h-2.3V149.5z"/>
		<path class="st3" d="M532.8,147.5h2.3v15.8h-2.3V147.5z"/>
		<path class="st3" d="M541.4,150.3c0.1,1.4,0.1,2.7,0.1,4.6v8.5h-2.2v-15.8h3l4.7,8.9c0.7,1.3,1.4,2.6,1.9,3.9h0.1
			c-0.1-1.7-0.1-3.3-0.1-4.8v-8.1h2.1v15.8h-2.9l-4.8-9.1c-0.7-1.3-1.3-2.6-1.9-3.9H541.4z"/>
		<path class="st3" d="M566.1,148.8l-1.5,1.7c-0.7-0.6-1.6-1.1-3.2-1.1c-2.2,0-4.6,1.2-4.6,6c0,4.5,1.6,6.3,4.5,6.3
			c0.9,0,1.9-0.2,2.4-0.5v-5.9h2.3v6.9c-1.1,0.8-2.6,1.4-5.2,1.4c-4.2,0-6.4-2.7-6.4-8.1c0-5.7,3.1-8.2,7-8.2
			C564.3,147.3,565.6,148.3,566.1,148.8z"/>
	</g>
</g>
</svg>
