<svg xmlns="http://www.w3.org/2000/svg" xmlns:xlink="http://www.w3.org/1999/xlink" preserveAspectRatio="xMidYMid" width="121.94" height="110" viewBox="0 0 60.97 55">
  <defs>
    <style>
      .cls-1 {
        fill: #18c540;
        fill-rule: evenodd;
      }
    </style>
  </defs>
  <path d="M60.299,35.842 C59.090,33.940 56.602,33.306 54.636,34.397 L52.472,35.599 L52.472,17.716 L56.204,21.270 C56.397,21.454 56.645,21.546 56.892,21.546 C57.157,21.546 57.421,21.440 57.618,21.232 C57.998,20.830 57.981,20.194 57.580,19.813 L37.061,0.274 C36.675,-0.094 36.070,-0.094 35.684,0.274 L15.164,19.813 C14.763,20.194 14.746,20.830 15.126,21.232 C15.507,21.635 16.140,21.652 16.541,21.270 L20.273,17.716 L20.273,27.324 C18.669,27.464 17.100,27.936 15.673,28.728 L0.487,37.153 C0.007,37.419 -0.170,38.023 0.090,38.508 L8.651,54.477 C8.784,54.725 9.014,54.906 9.286,54.975 C9.367,54.995 9.449,55.005 9.531,55.005 C9.725,55.005 9.916,54.949 10.081,54.840 L17.287,50.082 L37.106,53.088 C39.205,53.407 41.350,52.955 43.144,51.816 L58.981,41.769 C59.947,41.155 60.617,40.201 60.866,39.080 C61.115,37.960 60.914,36.810 60.299,35.842 ZM36.372,2.387 L50.471,15.811 L50.471,36.709 L41.221,41.843 L30.558,40.030 C28.632,39.702 27.172,38.150 26.879,36.283 L38.870,38.239 C40.776,38.550 42.632,37.320 43.098,35.438 C43.346,34.434 43.179,33.400 42.627,32.525 C42.425,32.205 42.180,31.922 41.903,31.683 L41.903,22.014 C41.903,21.459 41.455,21.010 40.902,21.010 L31.842,21.010 C31.290,21.010 30.842,21.459 30.842,22.014 L30.842,28.970 L23.554,27.503 C23.129,27.418 22.702,27.359 22.274,27.323 L22.274,15.811 L36.372,2.387 ZM39.902,30.794 L32.843,29.373 L32.843,23.018 L39.902,23.018 L39.902,30.794 ZM58.913,38.642 C58.781,39.238 58.425,39.745 57.912,40.071 L42.076,50.118 C40.688,50.999 39.029,51.349 37.405,51.102 L17.207,48.039 C16.963,48.002 16.714,48.056 16.508,48.192 L9.894,52.559 L2.320,38.430 L16.640,30.486 C18.623,29.385 20.939,29.026 23.161,29.473 L39.811,32.824 C40.280,32.918 40.680,33.194 40.937,33.601 C41.193,34.007 41.271,34.488 41.155,34.955 C40.939,35.829 40.075,36.401 39.190,36.256 L26.007,34.106 C25.733,34.061 25.453,34.133 25.234,34.303 C25.014,34.474 24.875,34.729 24.850,35.006 C24.547,38.370 26.907,41.446 30.223,42.010 L41.232,43.882 C41.455,43.920 41.685,43.881 41.883,43.771 L55.604,36.155 C56.649,35.575 57.970,35.912 58.612,36.923 C58.939,37.437 59.046,38.048 58.913,38.642 Z" class="cls-1"/>
</svg>
