<svg xmlns="http://www.w3.org/2000/svg" xmlns:xlink="http://www.w3.org/1999/xlink" preserveAspectRatio="xMidYMid" width="108" height="108" viewBox="0 0 54 54">
  <defs>
    <style>
      .cls-1 {
        fill: #18c540;
        fill-rule: evenodd;
      }
    </style>
  </defs>
  <path d="M52.200,31.503 L52.200,33.304 L50.400,33.304 L50.400,31.503 L48.600,31.503 L48.600,29.703 L50.400,29.703 L50.400,27.903 L52.200,27.903 L52.200,29.703 L54.000,29.703 L54.000,31.503 L52.200,31.503 ZM51.300,7.201 L49.500,7.201 C49.500,5.713 48.289,4.501 46.800,4.501 L46.800,2.701 C48.289,2.701 49.500,1.490 49.500,0.001 L51.300,0.001 C51.300,1.490 52.511,2.701 54.000,2.701 L54.000,4.501 C52.511,4.501 51.300,5.713 51.300,7.201 ZM50.400,2.673 C50.137,3.027 49.826,3.338 49.472,3.601 C49.826,3.864 50.137,4.175 50.400,4.529 C50.663,4.175 50.974,3.864 51.328,3.601 C50.974,3.338 50.663,3.027 50.400,2.673 ZM46.800,16.202 L46.800,17.102 L46.800,19.802 L46.800,20.703 L46.800,24.303 L46.754,24.303 C46.290,30.831 40.844,36.004 34.200,36.004 C27.556,36.004 22.110,30.831 21.646,24.303 L21.600,24.303 L21.600,20.703 L21.600,19.802 L21.600,17.102 L21.600,16.202 L21.600,12.602 C21.600,5.653 27.252,0.001 34.200,0.001 C41.148,0.001 46.800,5.653 46.800,12.602 L46.800,16.202 ZM34.200,1.801 C29.661,1.801 25.775,4.619 24.179,8.594 C26.482,5.567 30.111,3.601 34.200,3.601 C38.289,3.601 41.917,5.567 44.221,8.594 C42.625,4.619 38.739,1.801 34.200,1.801 ZM34.200,5.401 C29.661,5.401 25.775,8.219 24.179,12.194 C26.482,9.167 30.111,7.201 34.200,7.201 C38.289,7.201 41.917,9.167 44.221,12.194 C42.625,8.219 38.739,5.401 34.200,5.401 ZM34.200,9.002 C29.661,9.002 25.775,11.820 24.179,15.794 C26.482,12.767 30.111,10.802 34.200,10.802 C38.289,10.802 41.917,12.767 44.221,15.794 C42.625,11.820 38.739,9.002 34.200,9.002 ZM34.200,12.602 C28.245,12.602 23.400,17.447 23.400,23.403 C23.400,29.359 28.245,34.204 34.200,34.204 C40.155,34.204 45.000,29.359 45.000,23.403 C45.000,17.447 40.155,12.602 34.200,12.602 ZM34.200,32.404 C29.237,32.404 25.200,28.366 25.200,23.403 C25.200,18.440 29.237,14.402 34.200,14.402 C39.163,14.402 43.200,18.440 43.200,23.403 C43.200,28.366 39.163,32.404 34.200,32.404 ZM34.200,16.202 C30.230,16.202 27.000,19.433 27.000,23.403 C27.000,27.373 30.230,30.603 34.200,30.603 C38.170,30.603 41.400,27.373 41.400,23.403 C41.400,19.433 38.170,16.202 34.200,16.202 ZM34.200,22.503 C35.689,22.503 36.900,23.714 36.900,25.203 C36.900,26.375 36.145,27.365 35.100,27.738 L35.100,28.803 L33.300,28.803 L33.300,27.738 C32.255,27.365 31.500,26.375 31.500,25.203 L33.300,25.203 C33.300,25.700 33.703,26.103 34.200,26.103 C34.697,26.103 35.100,25.700 35.100,25.203 C35.100,24.706 34.697,24.303 34.200,24.303 C32.711,24.303 31.500,23.092 31.500,21.603 C31.500,20.431 32.255,19.441 33.300,19.068 L33.300,18.002 L35.100,18.002 L35.100,19.068 C36.145,19.441 36.900,20.431 36.900,21.603 L35.100,21.603 C35.100,21.106 34.697,20.703 34.200,20.703 C33.703,20.703 33.300,21.106 33.300,21.603 C33.300,22.100 33.703,22.503 34.200,22.503 ZM17.100,32.404 L15.300,32.404 C15.300,30.915 14.089,29.703 12.600,29.703 L12.600,27.903 C14.089,27.903 15.300,26.692 15.300,25.203 L17.100,25.203 C17.100,26.692 18.311,27.903 19.800,27.903 L19.800,29.703 C18.311,29.703 17.100,30.915 17.100,32.404 ZM16.200,27.875 C15.937,28.229 15.626,28.540 15.272,28.803 C15.626,29.066 15.937,29.377 16.200,29.731 C16.463,29.377 16.774,29.066 17.128,28.803 C16.774,28.540 16.463,28.229 16.200,27.875 ZM16.200,7.201 L14.400,7.201 C14.400,5.713 13.189,4.501 11.700,4.501 L11.700,2.701 C13.189,2.701 14.400,1.490 14.400,0.001 L16.200,0.001 C16.200,1.490 17.411,2.701 18.900,2.701 L18.900,4.501 C17.411,4.501 16.200,5.713 16.200,7.201 ZM15.300,2.673 C15.037,3.027 14.726,3.338 14.372,3.601 C14.726,3.864 15.037,4.175 15.300,4.529 C15.563,4.175 15.874,3.864 16.228,3.601 C15.874,3.338 15.563,3.027 15.300,2.673 ZM14.400,18.002 L14.400,16.202 L12.600,16.202 L12.600,14.402 L14.400,14.402 L14.400,12.602 L16.200,12.602 L16.200,14.402 L18.000,14.402 L18.000,16.202 L16.200,16.202 L16.200,18.002 L14.400,18.002 ZM23.400,34.204 C23.639,34.204 23.868,34.298 24.036,34.467 L29.106,39.538 L46.955,36.433 C47.809,36.285 48.686,36.519 49.351,37.080 C50.017,37.641 50.400,38.462 50.400,39.332 C50.400,40.375 49.841,41.348 48.941,41.872 L29.307,53.328 C28.849,53.595 28.337,53.729 27.825,53.729 C27.376,53.729 26.925,53.625 26.510,53.416 L16.888,48.605 L14.400,48.605 L10.800,48.605 L-0.000,48.605 L-0.000,46.805 L9.900,46.805 L9.900,36.004 L-0.000,36.004 L-0.000,34.204 L10.800,34.204 L14.400,34.204 L23.400,34.204 ZM15.300,46.805 L17.100,46.805 C17.239,46.805 17.378,46.837 17.503,46.900 L27.315,51.806 C27.662,51.979 28.067,51.967 28.400,51.773 L48.034,40.317 C48.383,40.114 48.600,39.736 48.600,39.331 C48.600,38.994 48.452,38.675 48.192,38.458 C47.934,38.240 47.596,38.146 47.262,38.206 L30.662,41.094 L31.391,41.823 C32.042,42.474 32.400,43.339 32.400,44.259 C32.400,46.158 30.854,47.705 28.955,47.705 C28.034,47.705 27.169,47.347 26.518,46.696 L21.864,42.041 L23.136,40.768 L27.791,45.423 C28.097,45.729 28.522,45.905 28.955,45.905 C29.862,45.905 30.600,45.167 30.600,44.259 C30.600,43.825 30.424,43.402 30.118,43.096 L23.027,36.004 L15.300,36.004 L15.300,46.805 ZM13.500,36.004 L11.700,36.004 L11.700,46.805 L13.500,46.805 L13.500,36.004 ZM4.500,22.503 L2.700,22.503 C2.700,21.014 1.489,19.802 -0.000,19.802 L-0.000,18.002 C1.489,18.002 2.700,16.791 2.700,15.302 L4.500,15.302 C4.500,16.791 5.711,18.002 7.200,18.002 L7.200,19.802 C5.711,19.802 4.500,21.014 4.500,22.503 ZM3.600,17.974 C3.337,18.328 3.026,18.640 2.672,18.902 C3.026,19.165 3.337,19.477 3.600,19.831 C3.863,19.477 4.174,19.165 4.528,18.902 C4.174,18.640 3.863,18.328 3.600,17.974 ZM44.100,46.805 L45.900,46.805 C45.900,48.294 47.111,49.505 48.600,49.505 L48.600,51.305 C47.111,51.305 45.900,52.517 45.900,54.005 L44.100,54.005 C44.100,52.517 42.889,51.305 41.400,51.305 L41.400,49.505 C42.889,49.505 44.100,48.294 44.100,46.805 ZM45.000,51.333 C45.263,50.979 45.574,50.668 45.928,50.405 C45.574,50.142 45.263,49.831 45.000,49.477 C44.737,49.831 44.426,50.142 44.072,50.405 C44.426,50.668 44.737,50.979 45.000,51.333 Z" class="cls-1"/>
</svg>
