<svg xmlns="http://www.w3.org/2000/svg" xmlns:xlink="http://www.w3.org/1999/xlink" preserveAspectRatio="xMidYMid" width="109" height="109" viewBox="0 0 54.5 54.5">
  <defs>
    <style>
      .cls-1 {
        fill: #18c540;
        fill-rule: evenodd;
      }
    </style>
  </defs>
  <path d="M54.231,1.551 L1.550,54.239 C1.373,54.416 1.140,54.505 0.908,54.505 C0.675,54.505 0.443,54.416 0.265,54.239 C-0.090,53.884 -0.090,53.310 0.265,52.955 L52.947,0.266 C53.302,-0.089 53.876,-0.089 54.231,0.266 C54.586,0.622 54.586,1.196 54.231,1.551 ZM8.174,42.696 C7.672,42.696 7.266,42.289 7.266,41.787 L7.266,9.993 C7.266,9.491 7.672,9.084 8.174,9.084 L35.423,9.084 C35.925,9.084 36.331,9.491 36.331,9.993 L36.331,14.535 C36.331,15.036 35.925,15.443 35.423,15.443 C34.921,15.443 34.515,15.036 34.514,14.535 L34.514,10.901 L30.881,10.901 L30.881,16.352 L32.698,16.352 C33.200,16.352 33.606,16.759 33.606,17.260 C33.606,17.761 33.200,18.168 32.698,18.168 L30.881,18.168 L30.881,19.986 C30.881,20.487 30.475,20.894 29.973,20.894 C29.470,20.894 29.065,20.487 29.065,19.986 L29.065,18.169 L25.431,18.169 L25.431,23.619 C25.934,23.619 26.340,24.026 26.340,24.528 C26.340,25.029 25.934,25.436 25.431,25.436 C25.431,25.938 25.025,26.344 24.523,26.344 C24.021,26.344 23.615,25.938 23.615,25.436 L19.982,25.436 L19.982,30.887 C19.982,31.388 19.576,31.795 19.073,31.795 C19.073,32.297 18.667,32.703 18.165,32.703 L14.532,32.703 L14.532,36.337 C14.532,36.838 14.126,37.245 13.624,37.245 C13.121,37.245 12.715,36.838 12.715,36.337 L12.715,32.703 L9.082,32.703 L9.082,38.154 L9.990,38.154 C10.493,38.154 10.899,38.561 10.899,39.062 C10.899,39.564 10.493,39.971 9.990,39.971 L9.082,39.971 L9.082,41.787 C9.082,42.289 8.676,42.696 8.174,42.696 ZM25.432,16.352 L29.065,16.352 L29.065,10.901 L25.432,10.901 L25.432,16.352 ZM19.982,23.619 L23.615,23.619 L23.615,18.168 L19.982,18.168 L19.982,23.619 ZM19.982,16.352 L23.615,16.352 L23.615,10.901 L19.982,10.901 L19.982,16.352 ZM14.532,30.887 L18.165,30.887 L18.165,25.436 L14.532,25.436 L14.532,30.887 ZM14.532,23.619 L18.165,23.619 L18.165,18.168 L14.532,18.168 L14.532,23.619 ZM14.532,16.352 L18.165,16.352 L18.165,10.901 L14.532,10.901 L14.532,16.352 ZM12.715,10.901 L9.082,10.901 L9.082,16.352 L12.715,16.352 L12.715,10.901 ZM12.715,18.168 L9.082,18.168 L9.082,23.619 L12.715,23.619 L12.715,18.168 ZM12.715,30.887 L12.715,25.436 L9.082,25.436 L9.082,30.887 L12.715,30.887 ZM39.056,11.810 C38.554,11.810 38.148,11.402 38.148,10.901 L38.148,7.267 L15.440,7.267 C14.938,7.267 14.532,6.860 14.532,6.359 C14.532,5.857 14.938,5.451 15.440,5.451 L30.881,5.451 L30.881,3.634 L24.523,3.634 C24.021,3.634 23.615,3.227 23.615,2.725 L23.615,1.817 L19.982,1.817 L19.982,2.726 C19.982,3.227 19.576,3.634 19.074,3.634 L12.715,3.634 L12.715,6.359 C12.715,6.860 12.309,7.267 11.807,7.267 L5.449,7.267 L5.449,45.421 C5.449,45.923 5.043,46.330 4.541,46.330 C4.038,46.330 3.632,45.923 3.633,45.421 L3.633,6.359 C3.633,5.857 4.038,5.451 4.541,5.451 L10.899,5.451 L10.899,2.725 C10.899,2.224 11.305,1.817 11.807,1.817 L18.166,1.817 L18.166,0.908 C18.166,0.407 18.571,0.000 19.074,0.000 L24.524,0.000 C25.026,0.000 25.432,0.407 25.432,0.908 L25.432,1.817 L31.790,1.817 C32.292,1.817 32.698,2.224 32.698,2.726 L32.698,5.451 L39.056,5.451 C39.559,5.451 39.964,5.858 39.964,6.359 L39.964,10.901 C39.964,11.402 39.559,11.810 39.056,11.810 ZM22.707,45.421 C22.205,45.421 21.799,45.014 21.799,44.513 L21.799,37.245 C21.799,36.744 22.205,36.337 22.707,36.337 L28.157,36.337 C28.659,36.337 29.065,36.744 29.065,37.245 L29.065,44.513 C29.065,45.014 28.659,45.421 28.157,45.421 L22.707,45.421 ZM27.248,38.154 L23.615,38.154 L23.615,43.604 L27.248,43.604 L27.248,38.154 ZM19.074,39.062 C19.576,39.062 19.982,39.469 19.982,39.971 L19.982,52.688 L29.065,52.688 L29.065,51.780 C29.065,51.279 29.471,50.872 29.973,50.872 L39.056,50.872 C39.559,50.872 39.965,51.279 39.965,51.780 L39.965,53.597 C39.965,54.098 39.559,54.505 39.056,54.505 C38.554,54.505 38.148,54.098 38.148,53.597 L38.148,52.688 L30.882,52.688 L30.882,53.597 C30.882,54.098 30.476,54.505 29.973,54.505 L19.074,54.505 C18.571,54.505 18.166,54.098 18.166,53.597 L18.166,39.971 C18.166,39.469 18.571,39.062 19.074,39.062 ZM39.965,37.245 C39.965,36.744 40.370,36.337 40.873,36.337 L46.323,36.337 C46.825,36.337 47.231,36.744 47.231,37.245 L47.231,44.513 C47.231,45.014 46.825,45.421 46.323,45.421 L40.873,45.421 C40.370,45.421 39.965,45.014 39.965,44.513 L39.965,37.245 ZM41.781,43.604 L45.414,43.604 L45.414,38.154 L41.781,38.154 L41.781,43.604 ZM42.690,52.688 L49.048,52.688 L49.048,37.245 C49.048,36.744 49.454,36.337 49.956,36.337 C50.458,36.337 50.864,36.744 50.864,37.245 L50.864,53.597 C50.864,54.098 50.458,54.505 49.956,54.505 L42.690,54.505 C42.187,54.505 41.781,54.098 41.781,53.597 C41.781,53.096 42.187,52.688 42.690,52.688 ZM31.790,49.055 C31.288,49.055 30.882,48.648 30.882,48.146 L30.882,37.245 C30.882,36.744 31.288,36.337 31.790,36.337 L37.240,36.337 C37.742,36.337 38.148,36.744 38.148,37.245 L38.148,48.146 C38.148,48.648 37.742,49.055 37.240,49.055 C36.737,49.055 36.331,48.648 36.331,48.146 L36.331,43.604 L35.423,43.604 C34.921,43.604 34.515,43.197 34.515,42.696 C34.515,42.194 34.921,41.787 35.423,41.787 L36.331,41.787 L36.331,38.154 L32.698,38.154 L32.698,48.146 C32.698,48.648 32.292,49.055 31.790,49.055 ZM37.506,20.252 C37.861,19.897 38.435,19.897 38.790,20.252 L52.681,34.144 L52.681,21.802 L46.323,21.802 C45.821,21.802 45.414,21.395 45.414,20.894 L45.414,19.986 L43.598,19.986 L43.598,20.894 C43.598,21.395 43.192,21.802 42.690,21.802 C42.187,21.802 41.781,21.395 41.781,20.894 L41.781,19.077 C41.781,18.576 42.187,18.169 42.690,18.169 L46.323,18.169 C46.825,18.169 47.231,18.576 47.231,19.077 L47.231,19.986 L53.589,19.986 C54.091,19.986 54.497,20.392 54.497,20.894 L54.497,36.337 C54.497,36.704 54.277,37.035 53.937,37.176 C53.824,37.223 53.706,37.245 53.589,37.245 C53.353,37.245 53.120,37.153 52.947,36.979 L37.506,21.536 C37.151,21.181 37.151,20.607 37.506,20.252 Z" class="cls-1"/>
</svg>
