<svg xmlns="http://www.w3.org/2000/svg" xmlns:xlink="http://www.w3.org/1999/xlink" preserveAspectRatio="xMidYMid" width="111.5" height="111.5" viewBox="0 0 55.75 55.75">
  <defs>
    <style>
      .cls-1 {
        fill: #18c540;
        stroke: #fff;
        stroke-width: 0.25px;
        fill-rule: evenodd;
      }
    </style>
  </defs>
  <path d="M55.244,27.988 L50.506,32.397 C50.277,32.610 49.986,32.717 49.695,32.717 C49.393,32.717 49.091,32.602 48.860,32.375 L47.356,30.899 L47.356,54.437 C47.356,55.096 46.823,55.631 46.164,55.631 L9.586,55.631 C8.927,55.631 8.394,55.096 8.394,54.437 L8.394,30.899 L6.890,32.375 C6.435,32.822 5.710,32.832 5.244,32.397 L0.505,27.988 C0.266,27.765 0.128,27.454 0.125,27.126 C0.122,26.799 0.253,26.485 0.487,26.257 L27.045,0.463 C27.508,0.013 28.243,0.013 28.705,0.463 L39.676,11.118 L39.676,7.535 C39.676,6.876 40.210,6.341 40.868,6.341 L47.662,6.341 C48.321,6.341 48.854,6.876 48.854,7.535 L48.854,20.033 L55.263,26.257 C55.498,26.485 55.628,26.799 55.625,27.126 C55.621,27.453 55.484,27.765 55.244,27.988 ZM10.778,53.244 L44.972,53.244 L44.972,28.558 L27.875,11.773 L10.778,28.558 L10.778,53.244 ZM46.470,8.728 L42.060,8.728 L42.060,13.434 L45.821,17.087 L46.470,17.717 L46.470,8.728 ZM46.833,21.395 C46.833,21.395 46.832,21.395 46.832,21.395 L45.121,19.732 L27.875,2.982 L3.048,27.095 L6.033,29.873 L27.040,9.249 C27.504,8.794 28.246,8.794 28.710,9.249 L49.717,29.873 L52.702,27.095 L46.833,21.395 ZM19.517,39.590 C18.206,39.590 16.895,39.091 15.896,38.091 C13.900,36.092 13.900,32.839 15.896,30.840 C17.893,28.841 21.142,28.841 23.138,30.840 C25.135,32.840 25.135,36.092 23.138,38.091 C22.140,39.090 20.829,39.590 19.517,39.590 ZM21.452,32.528 C20.919,31.994 20.218,31.727 19.517,31.727 C18.816,31.727 18.116,31.994 17.582,32.528 C16.515,33.597 16.515,35.335 17.582,36.403 C18.649,37.472 20.385,37.472 21.452,36.403 C22.519,35.335 22.519,33.597 21.452,32.528 ZM33.599,29.819 C34.064,29.353 34.819,29.353 35.284,29.819 C35.750,30.285 35.750,31.041 35.284,31.507 L19.173,47.638 C18.940,47.870 18.635,47.987 18.330,47.987 C18.025,47.987 17.720,47.870 17.487,47.638 C17.022,47.171 17.022,46.416 17.487,45.949 L33.599,29.819 ZM39.854,36.383 C41.851,38.382 41.851,41.635 39.854,43.634 C38.887,44.602 37.601,45.136 36.233,45.136 C34.865,45.136 33.579,44.602 32.612,43.634 C31.645,42.666 31.112,41.378 31.112,40.009 C31.112,38.639 31.645,37.352 32.612,36.383 C34.609,34.384 37.857,34.384 39.854,36.383 ZM34.298,41.946 C34.815,42.464 35.502,42.749 36.233,42.749 C36.964,42.749 37.651,42.464 38.168,41.946 C38.685,41.429 38.970,40.740 38.970,40.009 C38.970,39.276 38.685,38.589 38.168,38.071 C37.635,37.537 36.934,37.270 36.233,37.270 C35.532,37.270 34.831,37.537 34.298,38.071 C33.781,38.589 33.496,39.276 33.496,40.009 C33.496,40.740 33.781,41.429 34.298,41.946 ZM38.323,28.334 C38.293,28.406 38.256,28.476 38.213,28.540 C38.170,28.606 38.120,28.667 38.065,28.722 C38.010,28.777 37.950,28.827 37.884,28.870 C37.820,28.914 37.751,28.950 37.678,28.980 C37.606,29.010 37.531,29.033 37.455,29.048 C37.379,29.063 37.300,29.072 37.223,29.072 C37.145,29.072 37.067,29.063 36.990,29.048 C36.914,29.033 36.839,29.010 36.766,28.980 C36.695,28.950 36.626,28.914 36.561,28.870 C36.496,28.827 36.435,28.777 36.380,28.722 C36.325,28.667 36.275,28.606 36.232,28.540 C36.189,28.476 36.152,28.407 36.123,28.334 C36.093,28.262 36.069,28.187 36.053,28.111 C36.038,28.035 36.031,27.956 36.031,27.878 C36.031,27.801 36.038,27.722 36.053,27.646 C36.069,27.569 36.093,27.494 36.123,27.421 C36.152,27.350 36.189,27.280 36.232,27.216 C36.275,27.150 36.325,27.089 36.380,27.034 C36.435,26.979 36.496,26.929 36.561,26.887 C36.625,26.843 36.695,26.806 36.766,26.777 C36.839,26.747 36.914,26.723 36.990,26.709 C37.377,26.631 37.788,26.758 38.065,27.034 C38.120,27.089 38.170,27.150 38.213,27.216 C38.256,27.280 38.293,27.350 38.323,27.421 C38.353,27.494 38.377,27.569 38.392,27.646 C38.406,27.722 38.415,27.801 38.415,27.878 C38.415,27.956 38.406,28.034 38.392,28.111 C38.377,28.187 38.353,28.262 38.323,28.334 Z" class="cls-1"/>
</svg>
